<svg xmlns="http://www.w3.org/2000/svg" xmlns:xlink="http://www.w3.org/1999/xlink" width="1000" zoomAndPan="magnify" viewBox="0 0 750 749.999995" height="1000" preserveAspectRatio="xMidYMid meet" version="1.0"><metadata/><defs><g/><clipPath id="a4e9886993"><rect x="0" width="595" y="0" height="219"/></clipPath></defs><rect x="-75" width="900" fill="#ffffff" y="-74.999999" height="899.999994" fill-opacity="1"/><rect x="-75" width="900" fill="#ffffff" y="-74.999999" height="899.999994" fill-opacity="1"/><g transform="matrix(1, 0, 0, 1, 90, 265)"><g clip-path="url(#a4e9886993)"><g fill="#000000" fill-opacity="1"><g transform="translate(0.815415, 175.395439)"><g><path d="M 58.46875 0 L 11.515625 0 L 11.515625 -132.4375 L 58.84375 -132.4375 C 72.164062 -132.4375 83.644531 -129.796875 93.28125 -124.515625 C 102.914062 -119.234375 110.320312 -111.65625 115.5 -101.78125 C 120.675781 -91.914062 123.265625 -80.101562 123.265625 -66.34375 C 123.265625 -52.550781 120.664062 -40.695312 115.46875 -30.78125 C 110.269531 -20.863281 102.832031 -13.253906 93.15625 -7.953125 C 83.476562 -2.648438 71.914062 0 58.46875 0 Z M 39.515625 -24 L 57.296875 -24 C 69.753906 -24 79.207031 -27.359375 85.65625 -34.078125 C 92.101562 -40.804688 95.328125 -51.5625 95.328125 -66.34375 C 95.328125 -81.050781 92.101562 -91.742188 85.65625 -98.421875 C 79.207031 -105.109375 69.773438 -108.453125 57.359375 -108.453125 L 39.515625 -108.453125 Z M 39.515625 -24 "/></g></g></g><g fill="#000000" fill-opacity="1"><g transform="translate(150.293468, 175.395439)"><g><path d="M 27.09375 1.6875 C 22.820312 1.6875 19.15625 0.175781 16.09375 -2.84375 C 13.039062 -5.863281 11.535156 -9.53125 11.578125 -13.84375 C 11.535156 -18.0625 13.039062 -21.679688 16.09375 -24.703125 C 19.15625 -27.722656 22.820312 -29.234375 27.09375 -29.234375 C 31.238281 -29.234375 34.847656 -27.722656 37.921875 -24.703125 C 41.003906 -21.679688 42.570312 -18.0625 42.625 -13.84375 C 42.570312 -9.53125 41.003906 -5.863281 37.921875 -2.84375 C 34.847656 0.175781 31.238281 1.6875 27.09375 1.6875 Z M 27.09375 1.6875 "/></g></g></g><g fill="#000000" fill-opacity="1"><g transform="translate(229.799426, 175.395439)"><g><path d="M 64.546875 -132.4375 L 92.21875 -132.4375 L 92.21875 -40.09375 C 92.21875 -31.5625 90.304688 -24.15625 86.484375 -17.875 C 82.671875 -11.601562 77.378906 -6.753906 70.609375 -3.328125 C 63.847656 0.0976562 55.984375 1.8125 47.015625 1.8125 C 39.035156 1.8125 31.800781 0.386719 25.3125 -2.453125 C 18.820312 -5.296875 13.679688 -9.609375 9.890625 -15.390625 C 6.097656 -21.171875 4.222656 -28.457031 4.265625 -37.25 L 32.140625 -37.25 C 32.222656 -31.988281 33.738281 -27.898438 36.6875 -24.984375 C 39.644531 -22.078125 43.5625 -20.625 48.4375 -20.625 C 59.082031 -20.625 64.453125 -27.113281 64.546875 -40.09375 Z M 64.546875 -132.4375 "/></g></g></g><g fill="#000000" fill-opacity="1"><g transform="translate(352.698434, 175.395439)"><g><path d="M 27.09375 1.6875 C 22.820312 1.6875 19.15625 0.175781 16.09375 -2.84375 C 13.039062 -5.863281 11.535156 -9.53125 11.578125 -13.84375 C 11.535156 -18.0625 13.039062 -21.679688 16.09375 -24.703125 C 19.15625 -27.722656 22.820312 -29.234375 27.09375 -29.234375 C 31.238281 -29.234375 34.847656 -27.722656 37.921875 -24.703125 C 41.003906 -21.679688 42.570312 -18.0625 42.625 -13.84375 C 42.570312 -9.53125 41.003906 -5.863281 37.921875 -2.84375 C 34.847656 0.175781 31.238281 1.6875 27.09375 1.6875 Z M 27.09375 1.6875 "/></g></g></g><g fill="#000000" fill-opacity="1"><g transform="translate(432.204393, 175.395439)"><g><path d="M 128.375 -86.078125 L 100.046875 -86.078125 C 98.960938 -93.359375 95.851562 -99.078125 90.71875 -103.234375 C 85.59375 -107.398438 79.195312 -109.484375 71.53125 -109.484375 C 61.269531 -109.484375 53.046875 -105.722656 46.859375 -98.203125 C 40.671875 -90.679688 37.578125 -80.019531 37.578125 -66.21875 C 37.578125 -52.082031 40.691406 -41.335938 46.921875 -33.984375 C 53.148438 -26.628906 61.285156 -22.953125 71.328125 -22.953125 C 78.785156 -22.953125 85.101562 -24.898438 90.28125 -28.796875 C 95.457031 -32.703125 98.710938 -38.191406 100.046875 -45.265625 L 128.375 -45.140625 C 127.375 -37.035156 124.484375 -29.40625 119.703125 -22.25 C 114.921875 -15.09375 108.421875 -9.289062 100.203125 -4.84375 C 91.992188 -0.40625 82.21875 1.8125 70.875 1.8125 C 59.0625 1.8125 48.507812 -0.859375 39.21875 -6.203125 C 29.925781 -11.554688 22.597656 -19.296875 17.234375 -29.421875 C 11.867188 -39.554688 9.1875 -51.820312 9.1875 -66.21875 C 9.1875 -80.664062 11.898438 -92.953125 17.328125 -103.078125 C 22.765625 -113.210938 30.140625 -120.941406 39.453125 -126.265625 C 48.765625 -131.585938 59.238281 -134.25 70.875 -134.25 C 81.09375 -134.25 90.304688 -132.363281 98.515625 -128.59375 C 106.734375 -124.820312 113.460938 -119.347656 118.703125 -112.171875 C 123.941406 -104.992188 127.164062 -96.296875 128.375 -86.078125 Z M 128.375 -86.078125 "/></g></g></g></g></g></svg>